<svg xmlns="http://www.w3.org/2000/svg" viewBox="0 0 2078.14 909.79"><defs><style>.cls-1{fill-rule:evenodd;}</style></defs><g id="Layer_2" data-name="Layer 2"><g id="Layer_1-2" data-name="Layer 1"><path class="cls-1" d="M147.35,658.89q-65.25,0-106.3-42.42T0,505.83q0-72,41.7-116.42T152.19,345q65,0,105.15,42.57t40.11,112.16q0,71.54-41.63,115.4t-108.47,43.8Zm3-255q-36,0-57.16,27T72,502.36q0,45.09,21.17,71.33t55.5,26.23c23.56,0,42.2-8.53,56.08-25.51s20.74-40.62,20.74-70.82q0-47.16-20.09-73.42t-55.07-26.24Zm656.63,255q-65.25,0-106.3-42.42t-41-110.64q0-72,41.7-116.42T811.78,345q65,0,105.15,42.57T957,499.69q0,71.54-41.63,115.4t-108.47,43.8Zm3-255q-36,0-57.17,27t-21.17,71.47q0,45.09,21.17,71.33t55.5,26.23q35.34,0,56.08-25.51t20.74-70.82q0-47.16-20.09-73.42t-55.06-26.24ZM1030.8,653.68V350.17h110.49q50.84,0,78.12,18.64t27.32,52.4a62.26,62.26,0,0,1-16.62,43c-11.06,12.22-25.15,20.74-42.42,25.59v.86q32.4,4,51.81,23.92t19.37,48.49q0,41.73-29.85,66.2t-81.51,24.42Zm68.51-253.22v72h30c14.09,0,25.22-3.4,33.31-10.26s12.14-16.26,12.14-28.26q0-33.5-49.86-33.46Zm0,122.71v80.22h37q23.73,0,37.14-11.06t13.44-30.13q0-18.23-13.22-28.62t-36.93-10.41Zm461.75-173L1462.2,545.72v108h-68.51V547l-96.33-196.85h78.12l49,113.24c.79,2.09,3.18,10.33,6.93,24.79h.87c1.88-10.19,4-18.14,6.58-23.92l49.79-114.11Zm270.9,55.5h-86.72v248h-68.51v-248h-86.28v-55.5H1832v55.5Zm246.18,248H1896V350.17h175.18v55.5H1964.54v67.64h99.3v55.5h-99.3v69.37h113.6Z"/><polygon class="cls-1" points="422.7 350.17 429.31 350.17 444.94 382.97 422.7 350.17"/><path class="cls-1" d="M471.52,556.35l-52.19,97.33H337.82l96.76-151.75L428.2,491C337.67,350.4,234.59,160.9,278.11,57.3c84.41-200.93,372.06,185,418.48,262.51C656.13,278.29,436,31.56,348.13,65.44c-97.74,37.71,146.49,522.7,190,588.24C526.42,635.27,501.59,600.59,471.52,556.35Z"/><polygon class="cls-1" points="538.15 653.68 538.14 653.68 538.08 653.58 538.15 653.68"/><path class="cls-1" d="M815.42,835.41c-89.94-50.53-179.09-159.16-290.68-331.32l91.88-153.92H540.45l-51.9,97.14C458,398.68,425.76,345.66,391.39,288.12,460.45,468.79,539.22,627.9,627.27,745.63Q705.54,851.05,797.6,896.15c148.71,62,121.6-102.62,101-190.13C910.65,822,886.88,853.68,815.42,835.41Z"/></g></g></svg>